<?xml version="1.0" encoding="utf-8"?>
<!-- Generator: Adobe Illustrator 16.0.4, SVG Export Plug-In . SVG Version: 6.00 Build 0)  -->
<!DOCTYPE svg PUBLIC "-//W3C//DTD SVG 1.1//EN" "http://www.w3.org/Graphics/SVG/1.1/DTD/svg11.dtd">
<svg version="1.1" id="Layer_1" xmlns="http://www.w3.org/2000/svg" xmlns:xlink="http://www.w3.org/1999/xlink" x="0px" y="0px"
	 width="205px" height="105px" viewBox="0 0 205 105" enable-background="new 0 0 205 105" xml:space="preserve">
<g>
	<path fill="#F7371E" d="M114.463,57.143c-4.887-5.5-11.436-9.588-18.889-11.199l0,0c-7.951-2.044-14.187-8.371-16.1-16.374
		L69.297,39.761c1.429,2.947,3.262,5.671,5.438,8.095c4.885,5.501,11.422,9.576,18.875,11.187l0,0
		c7.609,1.964,13.636,7.833,15.823,15.352l10.007-10.008C118.104,61.767,116.414,59.332,114.463,57.143z"/>
	<circle fill="#B3B3B3" cx="101.147" cy="24.357" r="22.294"/>
	<g>
		<path fill="#808080" d="M23.097,28.269h-9.19v44.59h9.19c12.323-0.011,22.281-9.977,22.281-22.291
			C45.378,38.253,35.42,28.278,23.097,28.269z"/>
	</g>
	<g>
		<polygon fill="#F7371E" points="0.808,28.269 0.808,50.568 0.808,72.859 13.906,72.859 13.906,28.269 		"/>
	</g>
	<circle fill="#999999" cx="88.003" cy="80.642" r="22.294"/>
	<g>
		<path fill="#CCCCCC" d="M168.908,44.016h21.324c-2.787-9.133-11.279-15.774-21.324-15.774c-12.312,0-22.295,9.98-22.295,22.294
			c0,12.312,9.982,22.294,22.295,22.294c10.018,0,18.492-6.607,21.303-15.699h-21.303V44.016z"/>
		<path fill="#E6E6E6" d="M203.59,44.016h-13.357c0.632,2.061,0.97,4.251,0.97,6.52c0,2.295-0.347,4.51-0.991,6.595
			c-2.811,9.092-11.285,15.699-21.303,15.699v12.99c17.233,0,31.581-12.354,34.668-28.689c0.404-2.136,0.616-4.341,0.616-6.595
			v-6.52H203.59z"/>
		<path fill="#F7371E" d="M190.232,44.016c0.632,2.061,0.97,4.251,0.97,6.52c0,2.295-0.347,4.51-0.991,6.595h-21.303V44.016H190.232
			z"/>
	</g>
</g>
</svg>
