<?xml version="1.0" encoding="utf-8"?>
<!-- Generator: Adobe Illustrator 16.0.4, SVG Export Plug-In . SVG Version: 6.00 Build 0)  -->
<!DOCTYPE svg PUBLIC "-//W3C//DTD SVG 1.1//EN" "http://www.w3.org/Graphics/SVG/1.1/DTD/svg11.dtd">
<svg version="1.1" id="Layer_1" xmlns="http://www.w3.org/2000/svg" xmlns:xlink="http://www.w3.org/1999/xlink" x="0px" y="0px"
	 width="36px" height="36px" viewBox="0 0 36 36" enable-background="new 0 0 36 36" xml:space="preserve">
<symbol  id="Exclamation" viewBox="-1.455 -5.941 2.911 11.883">
	<path fill="#FF3154" d="M0.003-3.295c-0.756,0-1.365-0.596-1.365-1.32c0-0.732,0.613-1.326,1.365-1.326s1.361,0.594,1.361,1.326
		C1.364-3.891,0.755-3.295,0.003-3.295z M0.003-1.963c0.566,0,1.057,0.447,1.088,0.992l0.363,5.916
		c0.035,0.547-0.615,0.996-1.453,0.996c-0.832,0-1.49-0.449-1.455-0.996l0.363-5.916C-1.06-1.516-0.565-1.963,0.003-1.963z"/>
</symbol>
<use xlink:href="#Exclamation"  width="2.911" height="11.883" x="-1.455" y="-5.941" transform="matrix(1.018 0 0 -1.018 18 20.8975)" overflow="visible"/>
<g>
	<path fill="none" stroke="#F7371E" stroke-miterlimit="10" d="M2.593,32.566c-1.1,0-1.55-0.779-1-1.732L17,4.149
		c0.55-0.953,1.45-0.953,2,0l15.407,26.685c0.549,0.953,0.1,1.732-1,1.732H2.593z"/>
</g>
</svg>
