<?xml version="1.0" encoding="utf-8"?>
<!-- Generator: Adobe Illustrator 22.0.1, SVG Export Plug-In . SVG Version: 6.00 Build 0)  -->
<svg version="1.1" id="LUI_x5F_ICN_x5F_AF_x5F_L_x5F_Car"
	 xmlns="http://www.w3.org/2000/svg" xmlns:xlink="http://www.w3.org/1999/xlink" x="0px" y="0px" viewBox="0 0 48 48"
	 enable-background="new 0 0 48 48" xml:space="preserve">
<g>
	<g>
		<rect fill="none" width="48" height="48"/>
	</g>
	<g>
		<path fill="#FFFFFF" d="M38.7207,40l-1-3H10.2793l-1,3H5.54C3.5879,40,2,38.4121,2,36.46v-10.27
			c0-0.9932,0.1665-1.2964,0.5752-1.7988l9.0972-10.3926C12.1914,13.3516,12.9238,13,13.71,13H34.29
			c0.7861,0,1.5186,0.3516,2.0093,0.9648l9.1484,10.4536C45.8335,24.8936,46,25.1968,46,26.1899v10.27
			c0,1.9521-1.5879,3.54-3.54,3.54H38.7207z M34,31.5h10v-5H34V31.5z M15,31.5h18v-5H15V31.5z M4,31.5h10v-5H4V31.5z M13.46,14
			c-0.4668,0-0.9087,0.2051-1.2124,0.5625L3.998,24h39.4956l-8.1714-9.3389l-0.022-0.0381C34.9487,14.2051,34.5068,14,34.04,14
			H13.46z"/>
		<path fill="#FFFFFF" d="M44.6274,25l0.0441,0.0504c0.137,0.1685,0.2211,0.2775,0.2699,0.4496H43h-8h-1h-2H16h-1h-2H5H3.0586
			c0.0488-0.1722,0.1329-0.2811,0.2699-0.4496L3.3726,25H6.2h35.09H44.6274 M3,26.19v1.31v3v2h2h8h1h2h16h1h2h8h2v3.96
			c0,1.4006-1.1394,2.54-2.54,2.54h-3.0185l-0.5442-1.6324L38.4415,36H37H11H9.5585l-0.4558,1.3676L8.5585,39H5.54
			C4.1394,39,3,37.8605,3,36.46V26.19 M34.29,12H13.71c-1.09,0-2.11,0.49-2.79,1.34L1.8,23.76C1.23,24.46,1,25,1,26.19v10.27
			C1,38.97,3.03,41,5.54,41H10l1-3h26l1,3h4.46C44.97,41,47,38.97,47,36.46V26.19c0-1.19-0.23-1.73-0.8-2.43l-9.12-10.42
			C36.4,12.49,35.38,12,34.29,12L34.29,12z M6.2,23l6.81-7.79c0.11-0.13,0.27-0.21,0.45-0.21h20.58c0.18,0,0.34,0.08,0.45,0.21
			l0.08,0.11L41.29,23H6.2L6.2,23z M35,30.5v-3h8v3H35L35,30.5z M16,30.5v-3h16v3H16L16,30.5z M5,30.5v-3h8v3H5L5,30.5z"/>
	</g>
</g>
</svg>
