<svg version="1.1" id="LUI_x5F_ICN_x5F_AF_x5F_DestinationFlag"
	 xmlns="http://www.w3.org/2000/svg" xmlns:xlink="http://www.w3.org/1999/xlink" x="0px" y="0px" viewBox="0 0 48 48"
	 style="enable-background:new 0 0 48 48;" xml:space="preserve">
<style type="text/css">
	.st0{fill:#D1F6F3;}
	.st1{fill:#48DAD0;}
	.st2{fill:none;}
</style>
<path class="st0" d="M24,2.1c-10.3,0-18.7,8.4-18.7,18.6c0,5,1.9,9.7,5.5,13.2L24,47.1l13.3-13.2c3.6-3.5,5.5-8.2,5.5-13.2
	C42.7,10.5,34.3,2.1,24,2.1z"/>
<g>
	<path class="st1" d="M30,11v3.8h-6V9.3H24C26.2,9.3,28.3,9.9,30,11z"/>
	<path class="st1" d="M35.1,20.3c0,0.2,0,0.4,0,0.6H30v-6h3.7C34.6,16.4,35.1,18.3,35.1,20.3z"/>
	<path class="st1" d="M18,11.1v3.7h-3.5C15.3,13.4,16.5,12.1,18,11.1z"/>
	<rect x="17.9" y="14.9" class="st1" width="6" height="6"/>
	<rect x="24" y="20.9" class="st1" width="6" height="6"/>
	<path class="st1" d="M30,29.5v-2.6h2.8C32.1,27.9,31.1,28.8,30,29.5z"/>
	<path class="st1" d="M17.9,20.9v6h-2.7c-1.3-1.7-2.1-3.8-2.3-6H17.9z"/>
	<path class="st1" d="M24,26.9v4.3c-2.2,0-4.3-0.7-6-1.8c0,0,0,0,0,0v-2.5L24,26.9L24,26.9z"/>
	<path class="st1" d="M24,1.6c-10.6,0-19.2,8.5-19.2,19.1c0,5.1,2,9.9,5.6,13.5L24,47.6l13.5-13.5c3.6-3.6,5.6-8.4,5.6-13.5
		C43.2,10.1,34.6,1.6,24,1.6z M24,46.2l-6.9-6.8h13.7L24,46.2z M34.8,27.4c-1.1,1.6-2.6,3-4.3,4c-1.9,1.1-4.2,1.7-6.4,1.7
		c-2.4,0-4.6-0.6-6.6-1.8c-1.6-1-3.1-2.3-4.1-3.8c-1.3-1.9-2.1-4.2-2.2-6.5c0-0.2,0-0.5,0-0.7c0-2,0.5-4,1.4-5.8
		c1.1-2.2,2.8-4,5-5.2c2-1.2,4.2-1.8,6.6-1.8c1.2,0,2.4,0.2,3.5,0.5c1.1,0.3,2,0.7,2.9,1.2c2.2,1.2,4,3.1,5.1,5.3
		c0.8,1.5,1.3,3.2,1.4,4.9c0,0.3,0,0.6,0,0.9C37,22.8,36.2,25.3,34.8,27.4z"/>
	<rect y="0" class="st2" width="48" height="48"/>
</g>
</svg>
