<?xml version="1.0" encoding="utf-8"?>
<!-- Generator: Adobe Illustrator 20.1.0, SVG Export Plug-In . SVG Version: 6.00 Build 0)  -->
<svg version="1.1" id="Layer_1" xmlns="http://www.w3.org/2000/svg" xmlns:xlink="http://www.w3.org/1999/xlink" x="0px" y="0px"
	 viewBox="0 0 120 120" style="enable-background:new 0 0 120 120;" xml:space="preserve">
<style type="text/css">
	.st0{fill:none;}
	.st1{fill-rule:evenodd;clip-rule:evenodd;fill:#97999E;}
</style>
<rect class="st0" width="120" height="120"/>
<polygon class="st1" points="42,88 32,98 22,88 "/>
<path class="st1" d="M57.7,64.6c-2.1-2.6-2-3.9-0.7-5.3c1.6-1.6,3.2-0.9,5,0.9L57.7,64.6z M79.4,36.5c1.6-1.6,3.2-0.9,5,0.9
	l-4.3,4.4C78,39.2,78.1,37.9,79.4,36.5z M92.5,41c-2,3-5.4,7.9-9,4.2l9.1-9.3c-0.8-0.9-1.4-1.6-1.9-2.1c-4.9-5-10.4-5.1-14.7-0.7
	c-2.9,2.9-3.6,6.3-2.8,9.5l-2.8-3.3c-0.8,0.5-4.3,3.6-1.7,8.3l-3.3-2.8L61,49.3l5.8,6c-4.5-3.6-9.4-3.3-13.3,0.7
	c-4.2,4.2-3.9,9.4-0.8,13.6l-0.6-0.6c-4.1-4.2-8.6-2.7-10.8-0.5c-1.7,1.7-2.8,4.2-2.3,5.8l-9-9.1L25.3,70l17.6,18h9.5l-6.4-6.5
	c-3.3-3.5-3.4-5.3-1.8-6.9c1.6-1.6,3.4-0.6,6.6,2.7l6.3,6.4l4.7-4.8l-6-6.1c4.3,3.3,9.4,3.5,14-1.2c0,0,0.1-0.1,0.1-0.1l0,0
	c2.8-2.7,3.6-5.2,3.6-5.2l-3.6-2.4c-2,3-5.4,7.9-9,4.2l9.1-9.3l5.7,5.8l4.9-5l-7.1-7.2c-3.3-3.4-1.4-6.6,0-7.7
	c0.6,1.4,1.6,2.7,2.8,4c4.6,4.7,10.5,5.6,15.7,0.3c0,0,0.1-0.1,0.1-0.1l0,0c2.8-2.7,3.6-5.2,3.6-5.2L92.5,41z"/>
</svg>
