<?xml version="1.0" encoding="utf-8"?>
<!-- Generator: Adobe Illustrator 16.0.4, SVG Export Plug-In . SVG Version: 6.00 Build 0)  -->
<!DOCTYPE svg PUBLIC "-//W3C//DTD SVG 1.1//EN" "http://www.w3.org/Graphics/SVG/1.1/DTD/svg11.dtd">
<svg version="1.1" xmlns="http://www.w3.org/2000/svg" xmlns:xlink="http://www.w3.org/1999/xlink" x="0px" y="0px" width="800px"
	 height="400px" viewBox="-296.885 -167.064 800 400" enable-background="new -296.885 -167.064 800 400" xml:space="preserve">
<g id="Layer_1">
	<g>
		<polygon fill="#F7371E" points="-296.885,-62.386 -296.885,25.338 -296.885,113.033 -245.357,113.033 -245.357,-62.386 		"/>
	</g>
</g>
<g id="Layer_2">
	<g>
		<path fill="#808080" d="M-209.201-62.386h-36.153v175.419h36.153c48.478-0.047,87.652-39.252,87.652-87.695
			C-121.548-23.11-160.723-62.351-209.201-62.386z"/>
	</g>
</g>
<g id="Layer_3">
	<path fill="#999999" d="M46.136,55.943c48.437,0,87.704,39.268,87.704,87.707c0,48.438-39.267,87.699-87.704,87.699
		s-87.704-39.262-87.704-87.699C-41.568,95.211-2.301,55.943,46.136,55.943z"/>
</g>
<g id="Layer_4">
	<path fill="#B3B3B3" d="M97.845-165.479c48.435,0,87.706,39.267,87.706,87.704c0,48.436-39.271,87.704-87.706,87.704
		c-48.438,0-87.704-39.268-87.704-87.704C10.141-126.212,49.407-165.479,97.845-165.479z"/>
</g>
<g id="Layer_5">
	<path fill="#F7371E" d="M150.229,51.203c-19.225-21.635-44.987-37.717-74.308-44.056l0,0C44.642-0.894,20.11-25.784,12.584-57.269
		l-40.037,40.09C-21.831-5.583-14.62,5.134-6.06,14.669c19.218,21.643,44.935,37.67,74.254,44.009l0,0
		c29.933,7.726,53.645,30.815,62.25,60.394l39.362-39.371C164.552,69.397,157.905,59.816,150.229,51.203z"/>
</g>
<g id="Layer_6">
	<path fill="#CCCCCC" d="M364.416-0.437h83.889c-10.964-35.931-44.372-62.055-83.889-62.055c-48.438,0-87.708,39.26-87.708,87.704
		c0,48.434,39.271,87.705,87.708,87.705c39.409,0,72.748-25.994,83.805-61.761h-83.805V-0.437z"/>
</g>
<g id="Layer_7">
	<path fill="#F7371E" d="M448.305-0.437c2.486,8.108,3.815,16.723,3.815,25.649c0,9.028-1.364,17.742-3.899,25.944h-83.805V-0.437
		H448.305z"/>
</g>
<g id="Layer_8">
	<path fill="#E6E6E6" d="M500.853-0.437h-52.548c2.49,8.108,3.819,16.723,3.819,25.649c0,9.028-1.368,17.742-3.899,25.944
		c-11.061,35.767-44.396,61.761-83.805,61.761v51.102c67.796,0,124.239-48.602,136.383-112.863
		c1.587-8.402,2.425-17.077,2.425-25.944V-0.437H500.853z"/>
</g>
</svg>
