<?xml version="1.0" encoding="utf-8"?>
<!-- Generator: Adobe Illustrator 16.0.4, SVG Export Plug-In . SVG Version: 6.00 Build 0)  -->
<!DOCTYPE svg PUBLIC "-//W3C//DTD SVG 1.1//EN" "http://www.w3.org/Graphics/SVG/1.1/DTD/svg11.dtd">
<svg version="1.1" id="Layer_1" xmlns="http://www.w3.org/2000/svg" xmlns:xlink="http://www.w3.org/1999/xlink" x="0px" y="0px"
	 width="30px" height="30px" viewBox="0 0 30 30" enable-background="new 0 0 30 30" xml:space="preserve">
<g>
	<path fill="#FF3154" d="M3.046,26.575c-1.1,0-1.55-0.779-1-1.732L14,4.14c0.55-0.953,1.45-0.953,2,0l11.953,20.703
		c0.55,0.953,0.1,1.732-1,1.732H3.046z"/>
</g>
<g id="Exclamation">
	<path fill="#FFFFFF" d="M15.003,20.197c-0.756,0-1.365,0.596-1.365,1.32c0,0.732,0.613,1.326,1.365,1.326s1.361-0.594,1.361-1.326
		C16.364,20.793,15.755,20.197,15.003,20.197z M15.003,18.865c0.566,0,1.057-0.447,1.088-0.992l0.363-5.916
		c0.035-0.547-0.615-0.996-1.453-0.996c-0.832,0-1.49,0.449-1.455,0.996l0.363,5.916C13.94,18.418,14.435,18.865,15.003,18.865z"/>
</g>
</svg>
