<svg version="1.1" id="LUI_x5F_ICN_x5F_AF_x5F_L_x5F_Settings" xmlns="http://www.w3.org/2000/svg" xmlns:xlink="http://www.w3.org/1999/xlink" x="0px" y="0px" viewBox="0 0 48 48" enable-background="new 0 0 48 48" xml:space="preserve" transform="scale(.9)"><g><path fill="#FFFFFF" d="M38.1848,23.95c0-1.28-0.1599-2.51-0.48-3.69l4.8-3.96l-2.6499-4.6l-5.76,2.16		c-1.8101-1.88-4.1401-3.26-6.74-3.93l-1-6.02h-5.3101l-1,6.02c-2.6101,0.67-4.9299,2.05-6.74,3.93l-5.76-2.16L4.885,16.3		l4.8101,3.96c-0.3201,1.18-0.4802,2.41-0.4802,3.69c0,1.36,0.1902,2.68,0.54,3.93L4.885,31.89l2.6599,4.6l5.97-2.24		c1.77,1.75,3.99,3.05,6.48,3.7l1.05,6.33h5.3101l1.05-6.33c2.49-0.65,4.71-1.95,6.48-3.7l5.97,2.24l2.6499-4.6l-4.8599-4.01		C37.9949,26.63,38.1848,25.31,38.1848,23.95z M23.6951,34.2773c-5.6235,0-10.1824-4.5588-10.1824-10.1824		c0-5.6235,4.5588-10.1823,10.1824-10.1823s10.1824,4.5588,10.1824,10.1823C33.8774,29.7186,29.3186,34.2773,23.6951,34.2773z"/>	<path fill="none" stroke="#FFFFFF" stroke-width="2" stroke-miterlimit="10" d="M38.1848,23.95c0-1.28-0.1599-2.51-0.48-3.69		l4.8-3.96l-2.6499-4.6l-5.76,2.16c-1.8101-1.88-4.1401-3.26-6.74-3.93l-1-6.02h-5.3101l-1,6.02c-2.6101,0.67-4.9299,2.05-6.74,3.93		l-5.76-2.16L4.885,16.3l4.8101,3.96c-0.3201,1.18-0.4802,2.41-0.4802,3.69c0,1.36,0.1902,2.68,0.54,3.93L4.885,31.89l2.6599,4.6		l5.97-2.24c1.77,1.75,3.99,3.05,6.48,3.7l1.05,6.33h5.3101l1.05-6.33c2.49-0.65,4.71-1.95,6.48-3.7l5.97,2.24l2.6499-4.6		l-4.8599-4.01C37.9949,26.63,38.1848,25.31,38.1848,23.95z M23.6951,34.2773c-5.6235,0-10.1824-4.5588-10.1824-10.1824		c0-5.6235,4.5588-10.1823,10.1824-10.1823s10.1824,4.5588,10.1824,10.1823C33.8774,29.7186,29.3186,34.2773,23.6951,34.2773z"/>	<rect fill="none" width="48" height="48"/></g></svg>
