<svg xmlns="http://www.w3.org/2000/svg" viewBox="0 0 17.9 18.97"><defs><style>.cls-1{fill:#fff;}</style></defs><title>show-settings</title><g id="Layer_2" data-name="Layer 2"><g id="Layer_1-2" data-name="Layer 1"><path class="cls-1" d="M17.89,6.35a.7.7,0,0,0-.08-.49l-1.3-2.25a.7.7,0,0,0-.37-.29.72.72,0,0,0-.47,0l-2.25.85A6.51,6.51,0,0,0,11.32,3L11,.57a.74.74,0,0,0-.25-.4A.7.7,0,0,0,10.25,0H7.65a.65.65,0,0,0-.46.17A.77.77,0,0,0,7,.57L6.53,3a6.85,6.85,0,0,0-1.07.5,5,5,0,0,0-.95.7L2.24,3.32a.72.72,0,0,0-.47,0,.7.7,0,0,0-.37.29L.09,5.87A.7.7,0,0,0,0,6.35a.64.64,0,0,0,.25.41L2.11,8.29c0,.2-.06.4-.07.59s0,.4,0,.64,0,.4,0,.59,0,.39.07.59L.26,12.21a.74.74,0,0,0-.25.42.67.67,0,0,0,.08.47l1.3,2.25a.69.69,0,0,0,.37.29.71.71,0,0,0,.47,0l2.27-.85a5,5,0,0,0,.95.7,6.94,6.94,0,0,0,1.07.5L7,18.4a.77.77,0,0,0,.24.4.65.65,0,0,0,.46.17h2.6a.7.7,0,0,0,.47-.17.75.75,0,0,0,.25-.4l.35-2.4a5.93,5.93,0,0,0,2.1-1.2l2.25.85a.71.71,0,0,0,.47,0,.69.69,0,0,0,.37-.29l1.27-2.25a.76.76,0,0,0,.09-.49.64.64,0,0,0-.21-.41l-1.87-1.52c0-.2.06-.4.07-.59s0-.39,0-.59,0-.44,0-.64,0-.39-.07-.59l1.87-1.52A.7.7,0,0,0,17.89,6.35Zm-5.4,3.77H9.62v3.12H8.28V10.13H5.41V8.85H8.28V5.73H9.62V8.85h2.86Z"/></g></g></svg>