<?xml version="1.0" encoding="utf-8"?>
<!-- Generator: Adobe Illustrator 22.0.1, SVG Export Plug-In . SVG Version: 6.00 Build 0)  -->
<svg version="1.1" id="LUI_x5F_ICN_x5F_AF_x5F_L_x5F_Bus_x5F_01"
	 xmlns="http://www.w3.org/2000/svg" xmlns:xlink="http://www.w3.org/1999/xlink" x="0px" y="0px" viewBox="0 0 48 48"
	 enable-background="new 0 0 48 48" xml:space="preserve">
<path fill="#FFFFFF" d="M37,1H11C8.24,1,6,3.24,6,6v36h3v2c0,1.65,1.35,3,3,3h4.82l1-5h12.36l1,5H36c1.65,0,3-1.35,3-3v-2h3V6
	C42,3.24,39.76,1,37,1z M20,37h-9v-3h9V37z M37,37h-9v-3h9V37z M39,19H9V6c0-1.1,0.9-2,2-2h26c1.1,0,2,0.9,2,2V19z"/>
<rect x="13" y="7" fill="#FFFFFF" width="22" height="2"/>
<g>
	<rect fill="none" width="48" height="48"/>
</g>
<rect x="45" y="10" fill="#FFFFFF" width="2" height="14"/>
<rect x="1" y="10" fill="#FFFFFF" width="2" height="14"/>
</svg>
